P2
# Created by GIMP version 2.10.38 PNM plug-in
13 300
255
0
0
0
2
56
154
215
231
215
153
49
1
0
0
0
0
46
172
232
237
238
237
231
153
22
0
0
0
12
143
232
239
239
239
239
239
223
86
0
0
0
68
217
239
239
239
239
239
239
237
162
7
0
5
152
236
239
239
234
232
238
239
239
205
36
0
41
206
239
239
233
164
128
222
239
239
228
62
0
90
232
239
239
196
56
33
173
238
239
235
102
2
150
237
239
237
140
3
0
141
237
239
237
129
24
191
239
239
231
76
0
0
126
237
239
237
144
44
216
239
239
213
42
0
0
123
236
239
238
151
72
232
239
239
192
23
0
0
129
237
239
238
155
120
236
239
239
170
3
0
0
139
237
239
238
152
151
238
239
238
148
0
0
0
151
238
239
237
147
171
239
239
236
124
0
0
0
165
238
239
237
136
187
239
239
236
98
0
0
5
177
239
239
236
122
198
239
239
234
67
0
0
22
190
239
239
235
97
206
239
239
229
51
0
0
33
203
239
239
233
65
212
239
239
221
45
0
0
43
217
239
239
221
46
215
239
239
215
41
0
0
57
229
239
239
201
31
215
239
239
210
38
0
0
100
235
239
239
176
9
212
239
239
209
37
0
1
143
237
239
237
146
1
206
239
239
213
40
0
16
181
239
239
233
95
0
193
239
239
223
55
0
59
216
239
239
213
46
0
176
239
239
235
119
56
150
236
239
239
176
14
0
144
237
239
239
212
180
226
239
239
234
117
1
0
91
232
239
239
237
235
238
239
239
205
48
0
0
39
200
239
239
239
239
239
239
233
134
5
0
0
4
128
231
239
239
239
239
235
185
46
0
0
0
0
41
166
230
234
234
231
188
71
3
0
0
0
0
2
51
122
171
175
137
79
52
49
25
0
0
0
0
1
40
75
96
149
167
168
166
95
0
0
0
0
5
102
176
219
233
234
234
232
123
0
0
0
0
28
193
235
238
239
239
239
236
102
0
0
0
0
38
209
239
239
239
239
239
234
71
0
0
0
0
45
220
239
238
238
239
239
227
51
0
0
0
0
53
227
233
220
225
239
239
217
43
0
0
0
0
67
194
146
87
209
239
239
206
35
0
0
0
0
16
61
40
44
217
239
239
194
25
0
0
0
0
0
0
0
50
227
239
239
182
12
0
0
0
0
0
0
0
69
234
239
239
168
1
0
0
0
0
0
0
0
101
236
239
238
152
0
0
0
0
0
0
0
0
126
237
239
237
134
0
0
0
0
0
0
0
0
146
237
239
236
112
0
0
0
0
0
0
0
0
162
238
239
235
83
0
0
0
0
0
0
0
5
176
239
239
230
54
0
0
0
0
0
0
0
22
190
239
239
221
45
0
0
0
0
0
0
0
32
202
239
239
210
38
0
0
0
0
0
0
0
40
213
239
239
199
29
0
0
0
0
0
0
0
48
224
239
239
186
17
0
0
0
0
0
0
0
61
233
239
239
173
2
0
0
0
0
0
0
0
92
235
239
238
158
0
0
0
0
0
0
0
0
119
236
239
237
141
0
0
0
0
0
10
14
14
140
237
239
236
121
14
14
4
0
6
80
96
96
170
238
239
236
129
96
95
47
0
33
197
231
231
234
239
239
239
232
231
228
119
0
41
215
239
239
239
239
239
239
239
239
236
102
0
49
226
239
239
239
239
239
239
239
239
234
71
0
66
234
239
239
239
239
239
239
239
239
227
51
0
92
227
230
230
230
230
230
230
230
230
210
42
0
26
75
76
76
80
93
101
104
102
94
71
7
0
0
0
8
54
109
176
210
222
217
184
93
15
0
0
0
58
176
228
235
237
238
238
235
211
84
2
0
0
129
233
239
239
239
239
239
239
237
179
24
0
0
151
238
239
239
239
239
239
239
239
226
68
0
1
168
239
238
234
231
233
238
239
239
236
128
0
12
182
236
220
161
114
152
229
239
239
238
158
0
26
191
200
99
47
25
46
181
239
239
239
169
0
30
154
77
18
0
0
1
145
237
239
239
170
0
4
47
8
0
0
0
0
136
237
239
238
163
0
0
0
0
0
0
0
1
151
238
239
237
144
0
0
0
0
0
0
0
15
181
239
239
235
107
0
0
0
0
0
0
0
55
216
239
239
222
55
0
0
0
0
0
0
5
134
235
239
238
183
21
0
0
0
0
0
0
54
204
239
239
232
115
2
0
0
0
0
0
21
149
235
239
238
194
41
0
0
0
0
0
3
93
221
239
239
229
110
3
0
0
0
0
0
49
190
238
239
237
176
34
0
0
0
0
0
19
145
234
239
239
215
77
2
0
0
0
0
3
90
220
239
239
232
135
12
0
0
0
0
0
48
189
238
239
237
183
44
0
0
0
0
0
18
143
234
239
239
216
83
2
0
0
0
0
3
89
219
239
239
232
136
15
0
0
0
0
0
44
187
237
239
238
187
66
47
47
47
45
4
0
124
233
239
239
235
177
161
161
161
161
155
31
0
160
238
239
239
239
234
234
234
234
234
220
46
0
176
239
239
239
239
239
239
239
239
239
215
42
0
191
239
239
239
239
239
239
239
239
239
204
34
0
204
239
239
239
239
239
239
239
239
239
192
23
0
207
230
230
230
230
230
230
230
230
230
174
8
0
68
76
76
77
86
96
102
104
102
95
61
1
0
0
0
5
73
147
193
216
223
216
187
109
27
0
0
0
36
200
233
236
238
238
238
235
220
111
4
0
0
48
224
239
239
239
239
239
239
238
198
38
0
0
63
233
239
239
239
239
239
239
239
232
89
0
0
95
235
235
231
230
232
238
239
239
237
135
0
0
118
224
180
120
88
141
225
239
239
238
155
0
0
96
112
55
28
9
40
171
238
239
238
161
0
0
26
25
0
0
0
0
133
237
239
238
156
0
0
0
0
0
0
0
0
133
237
239
237
137
0
0
0
0
0
0
0
10
164
238
239
234
97
0
0
0
0
0
3
27
79
213
239
239
213
47
0
0
0
16
74
80
119
197
237
239
235
159
10
0
0
0
72
226
230
231
236
239
236
201
64
0
0
0
0
105
236
239
239
239
239
202
88
7
0
0
0
0
129
237
239
239
239
239
229
128
5
0
0
0
0
146
235
237
239
239
239
238
207
47
0
0
0
0
135
201
208
228
238
239
239
234
108
0
0
0
0
41
64
67
113
218
239
239
238
150
0
0
0
0
0
0
0
25
158
238
239
238
167
0
0
0
0
0
0
0
0
118
236
239
239
171
0
0
0
0
0
0
0
0
112
236
239
238
164
0
24
3
0
0
0
0
2
140
237
239
238
152
0
102
64
13
0
0
0
44
190
239
239
236
123
0
179
188
91
58
52
61
139
232
239
239
231
77
0
198
235
221
186
172
193
230
239
239
239
202
36
0
210
239
238
235
234
236
239
239
239
236
149
5
0
222
239
239
239
239
239
239
239
238
207
59
0
0
227
238
239
239
239
239
239
237
221
111
6
0
0
168
222
233
234
235
234
231
206
115
27
0
0
0
50
85
144
172
179
167
127
71
58
50
50
49
13
0
8
39
52
55
50
32
86
166
168
168
165
58
0
0
0
0
0
0
17
171
233
234
234
229
63
0
0
0
0
0
0
68
221
239
239
239
227
50
0
0
0
0
0
6
150
236
239
239
239
216
42
0
0
0
0
0
50
208
239
239
239
239
205
34
0
0
0
0
3
126
234
239
239
239
239
193
24
0
0
0
0
35
192
239
237
239
239
239
180
8
0
0
0
1
98
230
239
214
237
239
238
165
1
0
0
0
19
175
238
236
175
236
239
237
148
0
0
0
0
72
222
239
218
142
237
239
237
130
0
0
0
7
155
237
238
167
149
238
239
236
106
0
0
0
53
211
239
227
88
165
238
239
234
75
0
0
3
131
235
239
186
32
179
239
239
228
52
0
0
38
196
239
233
114
25
192
239
239
218
43
0
1
104
231
239
201
44
34
205
239
239
207
36
0
23
179
238
236
141
4
42
216
239
239
195
26
0
76
224
239
216
60
0
50
227
239
239
182
12
0
149
237
238
169
56
53
83
234
239
239
173
53
30
174
239
237
189
176
176
185
237
239
239
204
175
108
189
239
239
235
235
235
235
239
239
239
236
233
135
203
239
239
239
239
239
239
239
239
239
239
236
119
216
239
239
239
239
239
239
239
239
239
239
235
93
225
237
237
237
237
237
238
239
239
239
237
232
62
208
212
212
212
212
212
230
239
239
234
212
201
43
67
68
68
68
68
76
204
239
239
212
78
64
7
0
0
0
0
0
39
212
239
239
199
30
0
0
0
0
0
0
0
47
223
239
239
187
18
0
0
0
0
0
0
0
59
232
239
239
174
3
0
0
0
0
0
0
0
84
226
230
229
154
0
0
0
0
0
1
37
50
57
90
91
90
70
50
50
34
0
0
9
131
168
168
168
168
168
168
168
168
122
0
0
26
192
234
234
234
234
234
234
234
234
167
0
0
36
207
239
239
239
239
239
239
239
238
156
0
0
43
218
239
239
239
239
239
239
239
237
138
0
0
51
228
239
239
239
239
239
239
239
236
117
0
0
73
234
239
236
226
226
226
226
226
222
87
0
0
105
236
239
214
83
74
74
74
74
73
22
0
0
129
237
239
201
31
0
0
0
0
0
0
0
0
148
237
239
189
24
16
1
0
0
0
0
0
0
164
238
239
181
88
99
73
44
1
0
0
0
6
178
239
239
223
229
231
218
153
46
0
0
0
22
191
239
239
238
239
239
238
232
148
15
0
0
33
203
239
239
239
239
239
239
239
219
70
0
0
41
214
239
239
238
239
239
239
239
236
142
1
0
48
224
235
231
224
230
237
239
239
239
183
16
0
59
221
179
109
74
113
213
239
239
239
203
33
0
55
119
56
22
0
24
134
236
239
239
213
40
0
11
28
0
0
0
0
61
227
239
239
216
42
0
0
0
0
0
0
0
42
216
239
239
212
39
0
0
0
0
0
0
0
42
216
239
239
206
35
1
0
0
0
0
0
0
54
226
239
239
194
26
39
44
1
0
0
0
1
104
235
239
239
175
6
123
153
49
2
0
0
32
171
238
239
237
146
0
149
228
161
70
54
56
120
226
239
239
232
88
0
166
238
233
208
176
182
224
238
239
239
204
40
0
181
239
239
237
235
235
238
239
239
235
144
5
0
194
239
239
239
239
239
239
239
238
205
57
0
0
190
235
239
239
239
239
239
237
221
110
6
0
0
81
183
228
233
235
234
232
209
115
26
0
0
0
12
57
106
159
177
169
142
94
76
70
60
34
1
0
0
21
46
55
79
146
197
217
215
191
131
43
0
0
0
2
65
184
232
236
238
238
236
230
133
0
0
0
44
179
235
239
239
239
239
239
237
134
0
0
6
134
232
239
239
239
238
239
239
236
112
0
0
53
208
239
239
238
232
224
229
234
234
83
0
2
132
235
239
238
215
130
75
94
174
221
53
0
26
190
239
239
228
114
33
1
13
54
121
29
0
67
225
239
238
181
33
0
0
0
1
29
3
0
134
236
239
235
117
1
0
0
0
0
0
0
7
172
239
239
224
58
51
63
58
25
0
0
0
32
202
239
239
205
93
170
200
187
111
25
0
0
51
224
239
239
205
211
234
236
235
220
105
3
0
87
234
239
239
235
237
239
239
239
238
194
37
0
122
236
239
239
239
239
239
239
239
239
232
96
0
144
237
239
239
239
235
231
235
239
239
238
153
1
160
238
239
239
237
183
94
187
238
239
239
181
12
170
239
239
239
221
77
13
105
235
239
239
195
26
176
239
239
239
183
20
0
54
226
239
239
200
30
178
239
239
237
146
1
0
44
219
239
239
198
28
177
239
239
236
117
0
0
45
221
239
239
192
23
174
239
239
236
99
0
0
53
227
239
239
181
11
165
238
239
235
95
0
0
91
235
239
238
160
1
147
237
239
236
115
0
4
147
237
239
236
128
0
118
236
239
238
158
30
58
200
239
239
229
70
0
65
229
239
239
216
124
165
235
239
239
200
34
0
34
201
239
239
237
232
234
239
239
236
143
4
0
4
148
236
239
239
239
239
239
239
211
61
0
0
0
62
208
238
239
239
239
238
229
128
8
0
0
0
8
112
216
234
235
234
225
147
37
0
0
0
0
20
58
102
168
187
173
114
66
50
50
50
34
0
86
166
168
173
175
174
169
168
168
168
168
120
0
136
232
234
234
234
234
234
234
234
234
233
161
0
156
238
239
239
239
239
239
239
239
239
237
148
1
170
239
239
239
239
239
239
239
239
239
237
128
14
183
239
239
239
239
239
239
239
239
239
234
99
24
184
226
226
226
226
226
227
239
239
239
217
50
3
59
74
74
74
74
74
129
236
239
239
179
16
0
0
0
0
0
0
10
169
238
239
235
124
1
0
0
0
0
0
0
47
211
239
239
220
57
0
0
0
0
0
0
0
104
234
239
239
182
19
0
0
0
0
0
0
8
166
238
239
236
128
1
0
0
0
0
0
0
44
209
239
239
222
60
0
0
0
0
0
0
0
100
233
239
239
185
21
0
0
0
0
0
0
7
163
238
239
236
132
2
0
0
0
0
0
0
42
206
239
239
223
63
0
0
0
0
0
0
0
94
233
239
239
188
24
0
0
0
0
0
0
5
159
238
239
236
137
2
0
0
0
0
0
0
40
204
239
239
225
67
0
0
0
0
0
0
0
91
231
239
239
190
26
0
0
0
0
0
0
4
156
238
239
237
141
2
0
0
0
0
0
0
37
202
239
239
226
70
0
0
0
0
0
0
0
86
230
239
239
193
28
0
0
0
0
0
0
4
153
237
239
237
144
3
0
0
0
0
0
0
35
199
239
239
228
76
0
0
0
0
0
0
0
82
229
239
239
196
31
0
0
0
0
0
0
3
150
237
239
237
149
3
0
0
0
0
0
0
32
197
239
239
229
81
0
0
0
0
0
0
0
77
229
239
239
198
34
0
0
0
0
0
0
0
135
228
230
229
151
3
0
0
0
0
0
0
0
43
75
76
75
45
39
63
71
72
65
39
1
0
11
0
0
3
58
143
199
219
221
203
143
50
1
1
0
1
53
180
232
236
238
238
237
231
160
29
0
0
16
157
234
239
239
239
239
239
239
226
97
0
0
71
222
239
239
239
237
238
239
239
238
166
0
1
143
236
239
239
233
205
222
239
239
239
200
0
14
182
239
239
237
171
68
119
233
239
239
216
0
33
203
239
239
228
80
1
48
211
239
239
220
0
40
213
239
239
209
39
0
30
200
239
239
216
0
42
216
239
239
200
30
0
34
204
239
239
203
0
38
210
239
239
206
37
0
58
221
239
239
176
0
25
192
239
239
227
84
48
137
236
239
234
124
0
3
152
237
239
238
196
163
220
239
238
206
50
0
0
75
218
238
239
236
234
238
238
225
121
5
0
0
20
141
234
239
239
239
239
225
134
32
0
0
3
71
192
238
239
239
239
239
232
138
12
0
0
45
185
235
239
237
233
237
239
238
216
67
0
4
133
233
239
237
202
155
205
238
239
236
144
1
37
200
239
239
217
84
44
100
231
239
239
184
17
85
231
239
238
165
14
0
42
209
239
239
202
32
139
237
239
236
110
0
0
28
198
239
239
210
38
166
238
239
234
64
0
0
30
199
239
239
210
38
180
239
239
231
54
0
0
43
212
239
239
204
34
184
239
239
235
76
0
1
86
231
239
239
192
24
177
239
239
237
140
30
43
167
238
239
238
168
3
161
238
239
239
211
123
148
227
239
239
235
123
0
123
235
239
239
237
232
233
238
239
239
217
56
0
58
218
239
239
239
239
239
239
239
235
155
11
0
11
153
233
239
239
239
239
239
235
195
58
0
0
0
52
173
229
234
235
234
230
187
80
5
0
0
0
3
53
117
168
184
176
131
83
28
0
0
0
0
0
1
36
103
182
215
216
188
107
24
0
0
0
0
4
97
211
235
237
238
235
217
104
4
0
0
0
53
198
237
239
239
239
239
238
196
42
0
0
5
144
235
239
239
238
238
239
239
233
110
1
0
43
204
239
239
236
218
222
238
239
238
172
9
0
101
233
239
239
206
85
103
225
239
239
205
34
2
156
238
239
236
132
9
31
192
239
239
225
50
22
189
239
239
223
59
0
2
173
239
239
234
75
37
209
239
239
200
31
0
0
166
238
239
236
104
46
223
239
239
184
15
0
1
170
239
239
236
115
50
229
239
239
178
3
0
13
183
239
239
236
122
53
233
239
239
180
7
0
35
204
239
239
236
120
54
234
239
239
192
24
1
76
228
239
239
236
114
50
228
239
239
219
73
50
161
237
239
239
236
99
41
214
239
239
237
187
165
227
239
239
239
235
76
22
189
239
239
239
235
234
238
239
239
239
229
52
2
139
235
239
239
239
239
239
239
239
239
217
43
0
58
209
238
239
239
238
229
235
239
239
201
31
0
7
118
219
233
233
223
151
232
239
239
177
10
0
0
29
93
155
154
97
106
235
239
237
142
1
0
0
0
15
44
44
18
144
237
239
234
92
0
0
0
0
0
0
0
29
189
239
239
216
47
0
32
38
1
0
0
4
94
227
239
238
177
15
0
114
139
60
38
40
70
192
238
239
234
117
1
0
147
229
188
140
145
199
235
239
239
209
49
0
0
165
238
235
232
233
236
239
239
235
144
6
0
0
179
239
239
239
239
239
239
237
199
52
0
0
0
190
239
239
239
239
239
237
215
98
4
0
0
0
159
227
234
235
235
232
206
108
21
0
0
0
0
49
108
170
191
185
144
70
24
0
0
0
0
0
