P2
# Created by GIMP version 2.10.38 PNM plug-in
26 300
255
0
0
0
0
0
0
0
0
0
0
103
171
204
223
231
231
221
206
171
99
0
0
0
0
0
0
0
0
0
0
0
0
0
0
119
208
239
239
239
239
239
239
239
239
239
238
194
63
0
0
0
0
0
0
0
0
0
0
28
182
238
239
239
239
239
239
239
239
239
239
239
239
239
222
89
0
0
0
0
0
0
0
0
46
207
239
239
239
239
239
239
239
239
239
239
239
239
239
239
239
216
42
0
0
0
0
0
0
13
203
239
239
239
239
239
239
239
239
239
239
239
239
239
239
239
239
239
171
0
0
0
0
0
0
174
239
239
239
239
239
239
237
189
120
82
128
215
239
239
239
239
239
239
228
42
0
0
0
0
97
237
239
239
239
239
239
237
143
0
0
0
0
42
227
239
239
239
239
239
239
127
0
0
0
0
202
239
239
239
239
239
239
183
0
0
0
0
0
0
186
239
239
239
239
239
239
171
0
0
0
124
239
239
239
239
239
239
234
66
0
0
0
0
0
0
164
239
239
239
239
239
239
194
0
0
0
198
239
239
239
239
239
239
190
0
0
0
0
0
0
0
160
239
239
239
239
239
239
204
0
0
61
235
239
239
239
239
239
239
124
0
0
0
0
0
0
0
169
239
239
239
239
239
239
209
0
0
157
239
239
239
239
239
239
230
13
0
0
0
0
0
0
0
184
239
239
239
239
239
239
205
0
0
204
239
239
239
239
239
239
199
0
0
0
0
0
0
0
0
203
239
239
239
239
239
239
198
0
22
232
239
239
239
239
239
239
161
0
0
0
0
0
0
0
0
223
239
239
239
239
239
239
181
0
100
239
239
239
239
239
239
239
119
0
0
0
0
0
0
0
42
238
239
239
239
239
239
239
159
0
142
239
239
239
239
239
239
239
52
0
0
0
0
0
0
0
120
239
239
239
239
239
239
239
119
0
165
239
239
239
239
239
239
227
0
0
0
0
0
0
0
0
161
239
239
239
239
239
239
237
46
0
181
239
239
239
239
239
239
209
0
0
0
0
0
0
0
0
199
239
239
239
239
239
239
209
0
0
186
239
239
239
239
239
239
193
0
0
0
0
0
0
0
13
229
239
239
239
239
239
239
157
0
0
187
239
239
239
239
239
239
181
0
0
0
0
0
0
0
121
239
239
239
239
239
239
235
58
0
0
179
239
239
239
239
239
239
177
0
0
0
0
0
0
0
190
239
239
239
239
239
239
196
0
0
0
166
239
239
239
239
239
239
187
0
0
0
0
0
0
86
235
239
239
239
239
239
238
109
0
0
0
126
239
239
239
239
239
239
214
0
0
0
0
0
0
200
239
239
239
239
239
239
190
0
0
0
0
46
237
239
239
239
239
239
239
137
0
0
0
46
189
239
239
239
239
239
239
232
75
0
0
0
0
0
193
239
239
239
239
239
239
237
195
170
186
226
239
239
239
239
239
239
239
147
0
0
0
0
0
0
102
236
239
239
239
239
239
239
239
239
239
239
239
239
239
239
239
239
175
0
0
0
0
0
0
0
0
160
239
239
239
239
239
239
239
239
239
239
239
239
239
239
239
171
0
0
0
0
0
0
0
0
0
0
161
238
239
239
239
239
239
239
239
239
239
239
239
225
136
0
0
0
0
0
0
0
0
0
0
0
0
109
201
237
239
239
239
239
239
239
239
218
160
42
0
0
0
0
0
0
0
0
0
0
0
0
0
0
0
58
136
165
177
180
171
144
87
0
0
0
0
0
0
0
0
0
0
0
0
0
0
0
0
0
0
0
0
0
0
0
46
117
158
166
166
166
166
166
166
129
0
0
0
0
0
0
0
0
0
0
0
34
117
160
190
217
237
239
239
239
239
239
239
239
239
166
0
0
0
0
0
0
0
0
0
0
0
146
239
239
239
239
239
239
239
239
239
239
239
239
239
127
0
0
0
0
0
0
0
0
0
0
0
180
239
239
239
239
239
239
239
239
239
239
239
239
239
63
0
0
0
0
0
0
0
0
0
0
0
206
239
239
239
239
239
239
239
239
239
239
239
239
224
0
0
0
0
0
0
0
0
0
0
0
0
230
239
239
239
237
217
211
239
239
239
239
239
239
200
0
0
0
0
0
0
0
0
0
0
0
79
216
190
159
115
42
0
171
239
239
239
239
239
239
171
0
0
0
0
0
0
0
0
0
0
0
0
0
0
0
0
0
0
198
239
239
239
239
239
239
134
0
0
0
0
0
0
0
0
0
0
0
0
0
0
0
0
0
0
223
239
239
239
239
239
239
81
0
0
0
0
0
0
0
0
0
0
0
0
0
0
0
0
0
58
239
239
239
239
239
239
228
0
0
0
0
0
0
0
0
0
0
0
0
0
0
0
0
0
0
125
239
239
239
239
239
239
205
0
0
0
0
0
0
0
0
0
0
0
0
0
0
0
0
0
0
165
239
239
239
239
239
239
177
0
0
0
0
0
0
0
0
0
0
0
0
0
0
0
0
0
0
195
239
239
239
239
239
239
143
0
0
0
0
0
0
0
0
0
0
0
0
0
0
0
0
0
0
219
239
239
239
239
239
239
91
0
0
0
0
0
0
0
0
0
0
0
0
0
0
0
0
0
42
237
239
239
239
239
239
231
0
0
0
0
0
0
0
0
0
0
0
0
0
0
0
0
0
0
120
239
239
239
239
239
239
209
0
0
0
0
0
0
0
0
0
0
0
0
0
0
0
0
0
0
160
239
239
239
239
239
239
182
0
0
0
0
0
0
0
0
0
0
0
0
0
0
0
0
0
0
190
239
239
239
239
239
239
149
0
0
0
0
0
0
0
0
0
0
0
0
0
0
0
0
0
0
216
239
239
239
239
239
239
102
0
0
0
0
0
0
0
0
0
0
0
0
0
0
0
0
0
34
237
239
239
239
239
239
234
22
0
0
0
0
0
0
0
0
0
0
0
0
0
0
0
0
0
109
239
239
239
239
239
239
213
0
0
0
0
0
0
0
0
0
0
0
0
0
0
0
0
0
0
154
239
239
239
239
239
239
188
0
0
0
0
0
0
0
0
0
0
0
0
0
0
0
0
0
0
186
239
239
239
239
239
239
156
0
0
0
0
0
0
0
0
0
0
0
38
66
66
66
66
66
66
213
239
239
239
239
239
239
127
66
66
66
66
66
42
0
0
0
0
0
164
239
239
239
239
239
239
239
239
239
239
239
239
239
239
239
239
239
239
239
165
0
0
0
0
0
194
239
239
239
239
239
239
239
239
239
239
239
239
239
239
239
239
239
239
239
126
0
0
0
0
0
220
239
239
239
239
239
239
239
239
239
239
239
239
239
239
239
239
239
239
239
63
0
0
0
0
49
238
239
239
239
239
239
239
239
239
239
239
239
239
239
239
239
239
239
239
224
0
0
0
0
0
121
239
239
239
239
239
239
239
239
239
239
239
239
239
239
239
239
239
239
239
201
0
0
0
0
0
0
0
0
0
0
0
0
0
0
0
0
0
0
0
0
0
0
0
0
0
0
0
0
0
0
0
0
0
0
0
0
0
0
28
116
164
189
209
223
228
233
228
221
201
170
89
0
0
0
0
0
0
0
0
0
0
52
148
200
234
239
239
239
239
239
239
239
239
239
239
239
238
198
79
0
0
0
0
0
0
0
0
174
239
239
239
239
239
239
239
239
239
239
239
239
239
239
239
239
228
106
0
0
0
0
0
0
0
203
239
239
239
239
239
239
239
239
239
239
239
239
239
239
239
239
239
225
52
0
0
0
0
0
0
228
239
239
239
239
239
239
239
239
239
239
239
239
239
239
239
239
239
239
170
0
0
0
0
0
79
239
239
239
239
215
177
133
102
81
115
167
230
239
239
239
239
239
239
239
215
0
0
0
0
0
138
239
230
178
97
0
0
0
0
0
0
0
87
232
239
239
239
239
239
239
230
0
0
0
0
0
159
166
46
0
0
0
0
0
0
0
0
0
0
190
239
239
239
239
239
239
232
0
0
0
0
0
0
0
0
0
0
0
0
0
0
0
0
0
0
177
239
239
239
239
239
239
222
0
0
0
0
0
0
0
0
0
0
0
0
0
0
0
0
0
0
200
239
239
239
239
239
239
194
0
0
0
0
0
0
0
0
0
0
0
0
0
0
0
0
0
79
235
239
239
239
239
239
239
134
0
0
0
0
0
0
0
0
0
0
0
0
0
0
0
0
0
198
239
239
239
239
239
239
215
13
0
0
0
0
0
0
0
0
0
0
0
0
0
0
0
0
170
239
239
239
239
239
239
234
106
0
0
0
0
0
0
0
0
0
0
0
0
0
0
0
0
170
239
239
239
239
239
239
237
140
0
0
0
0
0
0
0
0
0
0
0
0
0
0
0
42
190
239
239
239
239
239
239
237
143
0
0
0
0
0
0
0
0
0
0
0
0
0
0
0
93
216
239
239
239
239
239
239
232
128
0
0
0
0
0
0
0
0
0
0
0
0
0
0
0
141
232
239
239
239
239
239
239
223
102
0
0
0
0
0
0
0
0
0
0
0
0
0
0
38
183
239
239
239
239
239
239
239
202
61
0
0
0
0
0
0
0
0
0
0
0
0
0
0
87
215
239
239
239
239
239
239
237
170
0
0
0
0
0
0
0
0
0
0
0
0
0
0
0
137
231
239
239
239
239
239
239
227
121
0
0
0
0
0
0
0
0
0
0
0
0
0
0
34
180
239
239
239
239
239
239
239
205
73
0
0
0
0
0
0
0
0
0
0
0
0
0
0
84
212
239
239
239
239
239
239
237
171
13
0
0
0
0
0
0
0
0
0
0
0
0
0
0
134
230
239
239
239
239
239
239
227
121
0
0
0
0
0
0
0
0
0
0
0
0
0
0
0
164
239
239
239
239
239
239
239
234
171
158
158
158
158
158
158
158
158
158
158
154
0
0
0
0
0
218
239
239
239
239
239
239
239
239
239
239
239
239
239
239
239
239
239
239
239
220
0
0
0
0
42
237
239
239
239
239
239
239
239
239
239
239
239
239
239
239
239
239
239
239
239
195
0
0
0
0
116
239
239
239
239
239
239
239
239
239
239
239
239
239
239
239
239
239
239
239
239
166
0
0
0
0
159
239
239
239
239
239
239
239
239
239
239
239
239
239
239
239
239
239
239
239
239
126
0
0
0
0
190
239
239
239
239
239
239
239
239
239
239
239
239
239
239
239
239
239
239
239
239
61
0
0
0
0
0
0
0
0
0
0
0
0
0
0
0
0
0
0
0
0
0
0
0
0
0
0
0
0
0
0
0
0
0
0
0
0
0
42
119
159
187
206
219
227
231
232
227
220
202
176
121
13
0
0
0
0
0
0
0
0
0
0
176
235
239
239
239
239
239
239
239
239
239
239
239
239
239
218
131
0
0
0
0
0
0
0
0
0
217
239
239
239
239
239
239
239
239
239
239
239
239
239
239
239
238
155
0
0
0
0
0
0
0
42
237
239
239
239
239
239
239
239
239
239
239
239
239
239
239
239
239
237
100
0
0
0
0
0
0
115
239
239
239
239
239
239
239
239
239
239
239
239
239
239
239
239
239
239
181
0
0
0
0
0
0
158
239
230
198
159
120
79
42
46
96
155
221
239
239
239
239
239
239
239
210
0
0
0
0
0
0
136
129
22
0
0
0
0
0
0
0
0
55
223
239
239
239
239
239
239
219
0
0
0
0
0
0
0
0
0
0
0
0
0
0
0
0
0
0
170
239
239
239
239
239
239
211
0
0
0
0
0
0
0
0
0
0
0
0
0
0
0
0
0
0
171
239
239
239
239
239
239
184
0
0
0
0
0
0
0
0
0
0
0
0
0
0
0
0
0
22
217
239
239
239
239
239
239
116
0
0
0
0
0
0
0
0
0
0
0
0
0
0
0
0
46
193
239
239
239
239
239
239
195
0
0
0
0
0
0
0
0
0
0
0
0
0
34
73
120
172
226
239
239
239
239
239
239
209
52
0
0
0
0
0
0
0
0
0
70
239
239
239
239
239
239
239
239
239
239
239
239
234
175
38
0
0
0
0
0
0
0
0
0
0
132
239
239
239
239
239
239
239
239
239
239
227
158
61
0
0
0
0
0
0
0
0
0
0
0
0
170
239
239
239
239
239
239
239
239
239
239
239
227
160
0
0
0
0
0
0
0
0
0
0
0
0
198
239
239
239
239
239
239
239
239
239
239
239
239
239
181
0
0
0
0
0
0
0
0
0
0
0
190
206
206
209
217
232
239
239
239
239
239
239
239
239
239
136
0
0
0
0
0
0
0
0
0
0
0
0
0
0
0
13
121
207
239
239
239
239
239
239
239
203
0
0
0
0
0
0
0
0
0
0
0
0
0
0
0
0
0
13
206
239
239
239
239
239
239
228
0
0
0
0
0
0
0
0
0
0
0
0
0
0
0
0
0
0
147
239
239
239
239
239
239
233
0
0
0
0
0
0
0
0
0
0
0
0
0
0
0
0
0
0
138
239
239
239
239
239
239
223
0
0
0
0
0
0
0
0
0
0
0
0
0
0
0
0
0
0
181
239
239
239
239
239
239
206
0
0
0
0
136
0
0
0
0
0
0
0
0
0
0
0
0
119
237
239
239
239
239
239
239
161
0
0
0
89
239
217
159
75
0
0
0
0
0
0
0
49
167
235
239
239
239
239
239
239
234
75
0
0
0
140
239
239
239
238
219
194
180
170
170
183
207
235
239
239
239
239
239
239
239
239
161
0
0
0
0
175
239
239
239
239
239
239
239
239
239
239
239
239
239
239
239
239
239
239
239
198
13
0
0
0
0
203
239
239
239
239
239
239
239
239
239
239
239
239
239
239
239
239
239
239
185
13
0
0
0
0
0
226
239
239
239
239
239
239
239
239
239
239
239
239
239
239
239
239
219
127
0
0
0
0
0
0
0
136
189
223
239
239
239
239
239
239
239
239
239
239
239
230
193
131
22
0
0
0
0
0
0
0
0
0
0
0
63
123
149
168
175
180
180
171
160
136
84
0
0
0
0
0
0
0
0
0
0
0
0
0
0
0
0
0
0
0
0
0
0
0
0
0
0
0
97
166
166
166
166
166
166
166
166
73
0
0
0
0
0
0
0
0
0
0
0
0
0
0
0
75
223
239
239
239
239
239
239
239
238
52
0
0
0
0
0
0
0
0
0
0
0
0
0
0
46
213
239
239
239
239
239
239
239
239
222
0
0
0
0
0
0
0
0
0
0
0
0
0
0
13
198
239
239
239
239
239
239
239
239
239
196
0
0
0
0
0
0
0
0
0
0
0
0
0
0
180
239
239
239
239
239
239
239
239
239
239
167
0
0
0
0
0
0
0
0
0
0
0
0
0
159
239
239
239
239
239
239
239
239
239
239
239
128
0
0
0
0
0
0
0
0
0
0
0
0
134
237
239
239
239
239
239
239
239
239
239
239
239
63
0
0
0
0
0
0
0
0
0
0
0
108
233
239
239
239
239
182
239
239
239
239
239
239
223
0
0
0
0
0
0
0
0
0
0
0
82
227
239
239
239
239
193
131
239
239
239
239
239
239
198
0
0
0
0
0
0
0
0
0
0
52
217
239
239
239
239
208
34
169
239
239
239
239
239
239
171
0
0
0
0
0
0
0
0
0
28
205
239
239
239
239
220
61
0
199
239
239
239
239
239
239
133
0
0
0
0
0
0
0
0
0
189
239
239
239
239
228
89
0
0
223
239
239
239
239
239
239
73
0
0
0
0
0
0
0
0
168
239
239
239
239
234
115
0
0
61
239
239
239
239
239
239
226
0
0
0
0
0
0
0
0
144
238
239
239
239
238
138
0
0
0
127
239
239
239
239
239
239
202
0
0
0
0
0
0
0
120
235
239
239
239
239
161
0
0
0
0
167
239
239
239
239
239
239
173
0
0
0
0
0
0
94
230
239
239
239
239
184
0
0
0
0
0
196
239
239
239
239
239
239
136
0
0
0
0
0
66
222
239
239
239
239
201
22
0
0
0
0
0
223
239
239
239
239
239
239
79
0
0
0
0
0
204
239
239
239
239
214
46
0
0
0
0
0
52
238
239
239
239
239
239
228
0
0
0
0
0
34
236
239
239
239
239
190
176
176
176
176
176
176
190
239
239
239
239
239
239
226
176
176
176
149
0
111
239
239
239
239
239
239
239
239
239
239
239
239
239
239
239
239
239
239
239
239
239
239
239
185
0
156
239
239
239
239
239
239
239
239
239
239
239
239
239
239
239
239
239
239
239
239
239
239
239
154
0
188
239
239
239
239
239
239
239
239
239
239
239
239
239
239
239
239
239
239
239
239
239
239
239
111
0
215
239
239
239
239
239
239
239
239
239
239
239
239
239
239
239
239
239
239
239
239
239
239
237
38
0
213
218
218
218
218
218
218
218
218
218
218
218
224
239
239
239
239
239
239
233
218
218
218
200
0
0
0
0
0
0
0
0
0
0
0
0
0
0
154
239
239
239
239
239
239
184
0
0
0
0
0
0
0
0
0
0
0
0
0
0
0
0
0
0
187
239
239
239
239
239
239
151
0
0
0
0
0
0
0
0
0
0
0
0
0
0
0
0
0
0
213
239
239
239
239
239
239
106
0
0
0
0
0
0
0
0
0
0
0
0
0
0
0
0
0
28
235
239
239
239
239
239
235
28
0
0
0
0
0
0
0
0
0
0
0
0
0
0
0
0
0
106
239
239
239
239
239
239
214
0
0
0
0
0
0
0
0
0
0
0
0
0
0
0
0
0
0
0
0
0
0
0
0
0
0
0
0
0
0
0
0
0
0
0
0
0
0
0
68
166
166
166
166
166
166
166
166
166
166
166
166
166
166
166
166
166
166
0
0
0
0
0
0
0
137
239
239
239
239
239
239
239
239
239
239
239
239
239
239
239
239
239
233
0
0
0
0
0
0
0
173
239
239
239
239
239
239
239
239
239
239
239
239
239
239
239
239
239
210
0
0
0
0
0
0
0
202
239
239
239
239
239
239
239
239
239
239
239
239
239
239
239
239
239
184
0
0
0
0
0
0
0
225
239
239
239
239
239
239
239
239
239
239
239
239
239
239
239
239
239
151
0
0
0
0
0
0
68
239
239
239
239
239
238
234
234
234
234
234
234
234
234
234
234
234
234
103
0
0
0
0
0
0
131
239
239
239
239
239
188
0
0
0
0
0
0
0
0
0
0
0
0
0
0
0
0
0
0
0
169
239
239
239
239
239
156
0
0
0
0
0
0
0
0
0
0
0
0
0
0
0
0
0
0
0
198
239
239
239
239
239
112
0
0
0
0
0
0
0
0
0
0
0
0
0
0
0
0
0
0
0
223
239
239
239
239
236
38
13
66
84
61
13
0
0
0
0
0
0
0
0
0
0
0
0
0
49
238
239
239
239
239
234
215
237
239
239
239
237
214
181
99
0
0
0
0
0
0
0
0
0
0
121
239
239
239
239
239
239
239
239
239
239
239
239
239
239
239
188
52
0
0
0
0
0
0
0
0
161
239
239
239
239
239
239
239
239
239
239
239
239
239
239
239
239
213
55
0
0
0
0
0
0
0
193
239
239
239
239
239
239
239
239
239
239
239
239
239
239
239
239
239
190
0
0
0
0
0
0
0
217
239
239
239
239
239
233
229
237
239
239
239
239
239
239
239
239
239
239
94
0
0
0
0
0
42
237
232
198
158
112
42
0
0
28
119
196
239
239
239
239
239
239
239
239
165
0
0
0
0
0
73
143
46
0
0
0
0
0
0
0
0
0
167
239
239
239
239
239
239
239
190
0
0
0
0
0
0
0
0
0
0
0
0
0
0
0
0
0
13
222
239
239
239
239
239
239
198
0
0
0
0
0
0
0
0
0
0
0
0
0
0
0
0
0
0
193
239
239
239
239
239
239
186
0
0
0
0
0
0
0
0
0
0
0
0
0
0
0
0
0
0
196
239
239
239
239
239
239
171
0
0
0
0
0
0
0
0
0
0
0
0
0
0
0
0
0
0
219
239
239
239
239
239
239
137
0
0
0
22
0
0
0
0
0
0
0
0
0
0
0
0
0
120
239
239
239
239
239
239
235
42
0
0
0
170
193
81
0
0
0
0
0
0
0
0
0
0
75
221
239
239
239
239
239
239
198
0
0
0
0
201
239
234
190
109
0
0
0
0
0
0
0
136
225
239
239
239
239
239
239
237
93
0
0
0
0
225
239
239
239
239
227
198
181
170
173
190
223
239
239
239
239
239
239
239
239
171
0
0
0
0
66
239
239
239
239
239
239
239
239
239
239
239
239
239
239
239
239
239
239
239
190
0
0
0
0
0
131
239
239
239
239
239
239
239
239
239
239
239
239
239
239
239
239
239
238
180
22
0
0
0
0
0
145
236
239
239
239
239
239
239
239
239
239
239
239
239
239
239
239
220
124
0
0
0
0
0
0
0
0
70
160
206
234
239
239
239
239
239
239
239
239
239
231
201
132
0
0
0
0
0
0
0
0
0
0
0
0
0
38
108
145
166
175
180
174
162
149
103
13
0
0
0
0
0
0
0
0
0
0
0
0
0
0
0
0
0
0
0
0
0
0
0
97
159
192
211
221
227
226
219
204
183
147
77
0
0
0
0
0
0
0
0
0
0
0
28
151
214
239
239
239
239
239
239
239
239
239
239
239
238
184
0
0
0
0
0
0
0
0
0
120
221
239
239
239
239
239
239
239
239
239
239
239
239
239
239
179
0
0
0
0
0
0
0
0
170
238
239
239
239
239
239
239
239
239
239
239
239
239
239
239
239
143
0
0
0
0
0
0
0
185
239
239
239
239
239
239
239
239
239
235
229
235
239
239
239
239
239
91
0
0
0
0
0
0
172
239
239
239
239
239
239
239
204
142
75
0
0
0
81
144
196
234
231
0
0
0
0
0
0
121
238
239
239
239
239
239
228
128
0
0
0
0
0
0
0
0
0
66
143
0
0
0
0
0
46
221
239
239
239
239
239
230
100
0
0
0
0
0
0
0
0
0
0
0
0
0
0
0
0
0
178
239
239
239
239
239
239
144
0
0
0
0
0
0
0
0
0
0
0
0
0
0
0
0
0
46
231
239
239
239
239
239
217
0
0
0
0
0
0
0
0
0
0
0
0
0
0
0
0
0
0
159
239
239
239
239
239
239
164
0
73
152
187
202
208
200
179
127
0
0
0
0
0
0
0
0
0
219
239
239
239
239
239
239
145
196
237
239
239
239
239
239
239
239
217
119
0
0
0
0
0
0
97
239
239
239
239
239
239
239
237
239
239
239
239
239
239
239
239
239
239
237
145
0
0
0
0
0
160
239
239
239
239
239
239
239
239
239
239
239
239
239
239
239
239
239
239
239
237
111
0
0
0
0
193
239
239
239
239
239
239
239
239
239
239
239
239
239
239
239
239
239
239
239
239
208
0
0
0
0
216
239
239
239
239
239
239
239
239
219
136
46
52
136
226
239
239
239
239
239
239
239
81
0
0
0
231
239
239
239
239
239
239
239
213
46
0
0
0
0
117
239
239
239
239
239
239
239
139
0
0
22
239
239
239
239
239
239
239
235
91
0
0
0
0
0
0
219
239
239
239
239
239
239
155
0
0
52
239
239
239
239
239
239
239
194
0
0
0
0
0
0
0
203
239
239
239
239
239
239
146
0
0
42
239
239
239
239
239
239
239
149
0
0
0
0
0
0
0
207
239
239
239
239
239
239
126
0
0
0
237
239
239
239
239
239
239
119
0
0
0
0
0
0
0
223
239
239
239
239
239
239
79
0
0
0
225
239
239
239
239
239
239
112
0
0
0
0
0
0
99
239
239
239
239
239
239
217
0
0
0
0
198
239
239
239
239
239
239
144
0
0
0
0
0
0
194
239
239
239
239
239
239
170
0
0
0
0
154
239
239
239
239
239
239
208
0
0
0
0
0
154
239
239
239
239
239
239
230
55
0
0
0
0
42
230
239
239
239
239
239
239
200
121
79
119
192
239
239
239
239
239
239
239
157
0
0
0
0
0
0
161
239
239
239
239
239
239
239
239
239
239
239
239
239
239
239
239
239
189
0
0
0
0
0
0
0
0
198
239
239
239
239
239
239
239
239
239
239
239
239
239
239
239
192
34
0
0
0
0
0
0
0
0
34
187
239
239
239
239
239
239
239
239
239
239
239
239
234
159
0
0
0
0
0
0
0
0
0
0
0
0
129
210
239
239
239
239
239
239
239
239
228
180
70
0
0
0
0
0
0
0
0
0
0
0
0
0
0
0
77
147
171
183
185
173
159
107
0
0
0
0
0
0
0
0
0
0
0
0
0
0
109
166
166
166
166
166
166
166
166
166
166
166
166
166
166
166
166
166
166
166
166
165
0
0
0
0
184
239
239
239
239
239
239
239
239
239
239
239
239
239
239
239
239
239
239
239
239
225
0
0
0
0
210
239
239
239
239
239
239
239
239
239
239
239
239
239
239
239
239
239
239
239
239
198
0
0
0
0
231
239
239
239
239
239
239
239
239
239
239
239
239
239
239
239
239
239
239
239
239
169
0
0
0
89
239
239
239
239
239
239
239
239
239
239
239
239
239
239
239
239
239
239
239
239
239
123
0
0
0
136
234
234
234
234
234
234
234
234
234
234
234
234
234
239
239
239
239
239
239
239
204
0
0
0
0
0
0
0
0
0
0
0
0
0
0
0
0
0
132
239
239
239
239
239
239
233
84
0
0
0
0
0
0
0
0
0
0
0
0
0
0
0
0
52
225
239
239
239
239
239
239
159
0
0
0
0
0
0
0
0
0
0
0
0
0
0
0
0
0
187
239
239
239
239
239
239
209
13
0
0
0
0
0
0
0
0
0
0
0
0
0
0
0
0
123
238
239
239
239
239
239
235
96
0
0
0
0
0
0
0
0
0
0
0
0
0
0
0
0
46
221
239
239
239
239
239
239
166
0
0
0
0
0
0
0
0
0
0
0
0
0
0
0
0
0
181
239
239
239
239
239
239
215
22
0
0
0
0
0
0
0
0
0
0
0
0
0
0
0
0
115
237
239
239
239
239
239
237
104
0
0
0
0
0
0
0
0
0
0
0
0
0
0
0
0
34
218
239
239
239
239
239
239
172
0
0
0
0
0
0
0
0
0
0
0
0
0
0
0
0
0
174
239
239
239
239
239
239
218
34
0
0
0
0
0
0
0
0
0
0
0
0
0
0
0
0
104
237
239
239
239
239
239
237
115
0
0
0
0
0
0
0
0
0
0
0
0
0
0
0
0
22
214
239
239
239
239
239
239
180
0
0
0
0
0
0
0
0
0
0
0
0
0
0
0
0
0
167
239
239
239
239
239
239
221
46
0
0
0
0
0
0
0
0
0
0
0
0
0
0
0
0
97
235
239
239
239
239
239
238
123
0
0
0
0
0
0
0
0
0
0
0
0
0
0
0
0
13
210
239
239
239
239
239
239
186
0
0
0
0
0
0
0
0
0
0
0
0
0
0
0
0
0
160
239
239
239
239
239
239
225
52
0
0
0
0
0
0
0
0
0
0
0
0
0
0
0
0
87
233
239
239
239
239
239
239
132
0
0
0
0
0
0
0
0
0
0
0
0
0
0
0
0
0
206
239
239
239
239
239
239
192
0
0
0
0
0
0
0
0
0
0
0
0
0
0
0
0
0
152
239
239
239
239
239
239
228
66
0
0
0
0
0
0
0
0
0
0
0
0
0
0
0
0
79
231
239
239
239
239
239
239
141
0
0
0
0
0
0
0
0
0
0
0
0
0
0
0
0
0
200
239
239
239
239
239
239
199
0
0
0
0
0
0
0
0
0
0
0
0
0
0
0
0
0
144
239
239
239
239
239
239
231
77
0
0
0
0
0
0
0
0
0
0
0
0
0
0
0
0
68
230
239
239
239
239
239
239
149
0
0
0
0
0
0
0
0
0
0
0
0
0
0
0
0
0
194
239
239
239
239
239
239
204
0
0
0
0
0
0
0
0
0
0
0
0
0
0
0
0
0
0
0
0
0
0
0
0
0
0
0
0
0
0
0
0
0
0
0
0
0
0
0
0
0
0
0
22
0
0
0
0
0
0
0
0
0
96
164
193
214
223
230
232
227
219
198
166
91
0
0
0
0
0
0
0
0
0
0
0
0
136
215
239
239
239
239
239
239
239
239
239
239
239
239
199
86
0
0
0
0
0
0
0
0
58
203
239
239
239
239
239
239
239
239
239
239
239
239
239
239
239
229
111
0
0
0
0
0
0
55
218
239
239
239
239
239
239
239
239
239
239
239
239
239
239
239
239
239
223
46
0
0
0
0
0
192
239
239
239
239
239
239
239
238
215
202
217
239
239
239
239
239
239
239
239
150
0
0
0
0
86
238
239
239
239
239
239
239
215
94
0
0
0
132
236
239
239
239
239
239
239
190
0
0
0
0
166
239
239
239
239
239
239
227
61
0
0
0
0
0
182
239
239
239
239
239
239
201
0
0
0
0
189
239
239
239
239
239
239
175
0
0
0
0
0
0
149
239
239
239
239
239
239
192
0
0
0
0
198
239
239
239
239
239
239
148
0
0
0
0
0
0
161
239
239
239
239
239
239
159
0
0
0
0
184
239
239
239
239
239
239
166
0
0
0
0
0
0
210
239
239
239
239
239
233
68
0
0
0
0
132
239
239
239
239
239
239
223
52
0
0
0
0
171
239
239
239
239
239
239
160
0
0
0
0
0
0
206
239
239
239
239
239
239
224
169
147
165
213
239
239
239
239
239
239
180
0
0
0
0
0
0
0
66
211
239
239
239
239
239
239
239
239
239
239
239
239
239
239
227
146
0
0
0
0
0
0
0
0
0
22
159
231
239
239
239
239
239
239
239
239
239
239
210
154
42
0
0
0
0
0
0
0
0
0
42
162
219
239
239
239
239
239
239
239
239
239
239
239
230
166
28
0
0
0
0
0
0
0
0
134
227
239
239
239
239
239
239
239
239
239
239
239
239
239
239
239
208
46
0
0
0
0
0
0
170
239
239
239
239
239
239
230
180
147
148
181
234
239
239
239
239
239
239
193
0
0
0
0
0
158
239
239
239
239
239
239
203
58
0
0
0
0
97
233
239
239
239
239
239
239
97
0
0
0
89
235
239
239
239
239
239
217
42
0
0
0
0
0
0
176
239
239
239
239
239
239
162
0
0
0
186
239
239
239
239
239
239
134
0
0
0
0
0
0
0
142
239
239
239
239
239
239
184
0
0
0
227
239
239
239
239
239
237
38
0
0
0
0
0
0
0
147
239
239
239
239
239
239
183
0
0
66
239
239
239
239
239
239
231
0
0
0
0
0
0
0
0
186
239
239
239
239
239
239
166
0
0
89
239
239
239
239
239
239
239
63
0
0
0
0
0
0
81
233
239
239
239
239
239
239
128
0
0
46
239
239
239
239
239
239
239
178
0
0
0
0
0
70
215
239
239
239
239
239
239
228
22
0
0
0
219
239
239
239
239
239
239
238
189
121
81
103
165
227
239
239
239
239
239
239
239
159
0
0
0
0
160
239
239
239
239
239
239
239
239
239
239
239
239
239
239
239
239
239
239
239
206
13
0
0
0
0
22
209
239
239
239
239
239
239
239
239
239
239
239
239
239
239
239
239
239
202
46
0
0
0
0
0
0
46
199
239
239
239
239
239
239
239
239
239
239
239
239
239
239
231
160
22
0
0
0
0
0
0
0
0
0
131
204
237
239
239
239
239
239
239
239
239
238
215
160
66
0
0
0
0
0
0
0
0
0
0
0
0
0
58
125
160
172
181
177
169
157
120
49
0
0
0
0
0
0
0
0
0
0
0
0
0
0
0
0
0
0
0
84
154
196
212
223
226
218
207
173
119
0
0
0
0
0
0
0
0
0
0
0
0
0
0
103
198
238
239
239
239
239
239
239
239
239
239
211
117
0
0
0
0
0
0
0
0
0
0
0
161
237
239
239
239
239
239
239
239
239
239
239
239
239
236
153
0
0
0
0
0
0
0
0
0
190
239
239
239
239
239
239
239
239
239
239
239
239
239
239
239
238
133
0
0
0
0
0
0
0
170
239
239
239
239
239
239
239
234
215
220
237
239
239
239
239
239
239
230
58
0
0
0
0
0
120
238
239
239
239
239
239
239
177
52
0
0
96
219
239
239
239
239
239
239
168
0
0
0
0
0
211
239
239
239
239
239
239
166
0
0
0
0
0
120
239
239
239
239
239
239
221
0
0
0
0
119
239
239
239
239
239
239
215
13
0
0
0
0
0
0
233
239
239
239
239
239
239
73
0
0
0
179
239
239
239
239
239
239
151
0
0
0
0
0
0
0
223
239
239
239
239
239
239
132
0
0
0
215
239
239
239
239
239
239
89
0
0
0
0
0
0
0
230
239
239
239
239
239
239
148
0
0
0
228
239
239
239
239
239
239
34
0
0
0
0
0
0
79
239
239
239
239
239
239
239
160
0
0
0
237
239
239
239
239
239
239
58
0
0
0
0
0
0
162
239
239
239
239
239
239
239
157
0
0
13
238
239
239
239
239
239
239
119
0
0
0
0
0
58
227
239
239
239
239
239
239
239
147
0
0
0
227
239
239
239
239
239
239
204
22
0
0
0
58
208
239
239
239
239
239
239
239
239
123
0
0
0
194
239
239
239
239
239
239
239
212
160
143
173
227
239
239
239
239
239
239
239
239
239
79
0
0
0
119
239
239
239
239
239
239
239
239
239
239
239
239
239
239
239
239
239
239
239
239
228
0
0
0
0
0
184
239
239
239
239
239
239
239
239
239
239
239
239
239
239
239
239
239
239
239
200
0
0
0
0
0
22
190
239
239
239
239
239
239
239
239
239
239
230
231
239
239
239
239
239
239
156
0
0
0
0
0
0
0
140
217
239
239
239
239
239
239
224
172
63
232
239
239
239
239
239
235
68
0
0
0
0
0
0
0
0
0
87
145
159
159
143
96
0
0
117
239
239
239
239
239
239
189
0
0
0
0
0
0
0
0
0
0
0
0
0
0
0
0
0
0
190
239
239
239
239
239
239
104
0
0
0
0
0
0
0
0
0
0
0
0
0
0
0
0
0
115
238
239
239
239
239
239
201
0
0
0
0
0
0
0
0
0
0
0
0
0
0
0
0
0
91
227
239
239
239
239
239
231
79
0
0
0
0
0
157
171
70
0
0
0
0
0
0
0
13
147
231
239
239
239
239
239
239
146
0
0
0
0
0
0
198
239
237
207
170
138
121
126
146
181
223
239
239
239
239
239
239
239
184
0
0
0
0
0
0
0
223
239
239
239
239
239
239
239
239
239
239
239
239
239
239
239
239
187
13
0
0
0
0
0
0
58
239
239
239
239
239
239
239
239
239
239
239
239
239
239
239
237
162
0
0
0
0
0
0
0
0
125
239
239
239
239
239
239
239
239
239
239
239
239
239
239
206
103
0
0
0
0
0
0
0
0
0
104
198
233
239
239
239
239
239
239
239
239
239
231
192
121
0
0
0
0
0
0
0
0
0
0
0
0
0
22
111
151
173
184
189
184
174
150
109
13
0
0
0
0
0
0
0
0
0
0
0
0
0
