P2
# Created by GIMP version 2.10.38 PNM plug-in
14 14
255
0
0
0
0
0
0
176
176
0
0
0
0
0
0
0
0
0
0
0
176
239
239
176
0
0
0
0
0
0
0
0
0
176
239
239
239
239
175
0
0
0
0
0
0
0
176
239
239
239
239
239
239
175
0
0
0
0
0
176
239
239
239
239
239
239
239
239
175
0
0
0
176
239
239
239
239
239
239
239
239
239
239
175
0
176
239
239
239
239
239
239
239
239
239
239
239
239
175
0
0
0
0
190
239
239
239
239
190
0
0
0
0
0
0
0
0
190
239
239
239
239
190
0
0
0
0
0
0
0
0
190
239
239
239
239
190
0
0
0
0
0
0
0
0
190
239
239
239
239
190
0
0
0
0
0
0
0
0
190
239
239
239
239
190
0
0
0
0
0
0
0
0
190
239
239
239
239
190
0
0
0
0
0
0
0
0
190
239
239
239
239
190
0
0
0
0
